<svg width="16" height="16" viewBox="0 0 16 16" fill="none" xmlns="http://www.w3.org/2000/svg">
<path d="M10.1147 12.5505C9.89147 12.5505 9.66785 12.4507 9.49413 12.3021C9.48239 12.2909 9.47304 12.2775 9.46665 12.2626C9.46026 12.2477 9.45696 12.2316 9.45696 12.2154C9.45696 12.1992 9.46026 12.1832 9.46665 12.1683C9.47304 12.1534 9.48239 12.1399 9.49413 12.1288C9.50531 12.1169 9.51878 12.1075 9.53371 12.1011C9.54865 12.0947 9.56473 12.0914 9.58099 12.0914C9.59725 12.0914 9.61333 12.0947 9.62827 12.1011C9.6432 12.1075 9.65667 12.1169 9.66785 12.1288C9.79204 12.2529 9.94137 12.3021 10.1147 12.3021C10.4618 12.3021 10.7345 12.0297 10.7345 11.6823C10.7345 11.3348 10.4618 11.0617 10.1147 11.0617H1.66899C1.5947 11.0617 1.5448 11.0126 1.5448 10.9383C1.5448 10.864 1.5947 10.8141 1.66899 10.8141H10.1147C10.5856 10.8141 10.9825 11.2107 10.9825 11.6823C10.9825 12.1531 10.5856 12.5505 10.1147 12.5505Z" fill="#5A5A5A" fill-opacity="0.8"/>
<path d="M10.1147 12.9314C9.8107 12.9314 9.50251 12.8106 9.24651 12.5912C9.12917 12.4762 9.07622 12.3497 9.07622 12.2156C9.07622 12.0823 9.12879 11.9562 9.22403 11.8602C9.3195 11.7667 9.44777 11.7144 9.58136 11.7144C9.71495 11.7144 9.84323 11.7667 9.9387 11.8602C9.97489 11.8964 10.0191 11.9207 10.1151 11.9207C10.2511 11.9207 10.3539 11.8179 10.3539 11.6819C10.3547 11.6503 10.349 11.6189 10.3372 11.5895C10.3255 11.5602 10.308 11.5335 10.2856 11.5111C10.2633 11.4887 10.2367 11.4711 10.2074 11.4592C10.1781 11.4474 10.1467 11.4416 10.1151 11.4423H1.66898C1.60251 11.443 1.53657 11.4304 1.47501 11.4053C1.41345 11.3802 1.35752 11.3431 1.31048 11.2962C1.26344 11.2492 1.22624 11.1933 1.20106 11.1318C1.17588 11.0703 1.16323 11.0044 1.16384 10.9379C1.16384 10.6548 1.38593 10.4327 1.66898 10.4327H10.1147C10.7916 10.4327 11.3635 11.0049 11.3635 11.6819C11.3635 12.3588 10.7916 12.9314 10.1147 12.9314Z" fill="#5A5A5A" fill-opacity="0.8"/>
<path d="M13.587 12.0544C12.8426 12.0544 12.2228 11.4346 12.2228 10.6899C12.2228 10.6163 12.2727 10.5664 12.3462 10.5664C12.4209 10.5664 12.47 10.6163 12.47 10.6899C12.4694 10.8367 12.4979 10.9823 12.5538 11.1181C12.6097 11.254 12.692 11.3774 12.7958 11.4813C12.8996 11.5852 13.023 11.6675 13.1588 11.7235C13.2946 11.7795 13.4401 11.8081 13.587 11.8076C13.7338 11.8081 13.8793 11.7795 14.0151 11.7235C14.1508 11.6675 14.2742 11.5851 14.3779 11.4812C14.4817 11.3773 14.5639 11.2539 14.6197 11.1181C14.6755 10.9822 14.7039 10.8367 14.7032 10.6899C14.7037 10.5431 14.6752 10.3977 14.6193 10.2621C14.5634 10.1264 14.4813 10.0031 14.3775 9.89936C14.2737 9.7956 14.1505 9.7134 14.0148 9.65751C13.8791 9.60161 13.7337 9.57311 13.587 9.57367H1.17252C1.09823 9.57367 1.04871 9.52453 1.04871 9.45024C1.04871 9.37595 1.09823 9.32605 1.17252 9.32605H13.587C14.331 9.32605 14.9512 9.94586 14.9512 10.6906C14.9512 11.4339 14.331 12.0544 13.587 12.0544Z" fill="#5A5A5A" fill-opacity="0.8"/>
<path d="M13.587 12.4355C13.1243 12.4349 12.6807 12.2508 12.3535 11.9235C12.0264 11.5963 11.8424 11.1527 11.8418 10.69C11.8411 10.6235 11.8537 10.5576 11.8788 10.4961C11.9039 10.4346 11.941 10.3787 11.988 10.3317C12.035 10.2847 12.0909 10.2476 12.1524 10.2225C12.2139 10.1974 12.2798 10.1849 12.3462 10.1856C12.4127 10.1848 12.4786 10.1973 12.5402 10.2224C12.6018 10.2475 12.6577 10.2846 12.7047 10.3316C12.7517 10.3786 12.7889 10.4345 12.814 10.496C12.8391 10.5575 12.8517 10.6235 12.851 10.69C12.851 11.1029 13.1744 11.4267 13.587 11.4267C13.9992 11.4267 14.3222 11.1029 14.3222 10.69C14.3232 10.5931 14.3049 10.4971 14.2683 10.4074C14.2318 10.3177 14.1776 10.2363 14.1092 10.1678C14.0407 10.0993 13.9592 10.0452 13.8696 10.0086C13.7799 9.97202 13.6838 9.9537 13.587 9.95471H1.17252C1.10605 9.95548 1.0401 9.94296 0.978538 9.91789C0.916977 9.89281 0.861045 9.8557 0.814025 9.80871C0.767006 9.76173 0.729846 9.70582 0.704728 9.64428C0.679609 9.58274 0.667039 9.5168 0.667753 9.45033C0.667753 9.16729 0.889468 8.94519 1.17252 8.94519H13.587C14.0497 8.9458 14.4933 9.12991 14.8205 9.45713C15.1476 9.78436 15.3316 10.228 15.3321 10.6907C15.3315 11.1533 15.1475 11.5968 14.8203 11.9239C14.4931 12.251 14.0496 12.435 13.587 12.4355Z" fill="#5A5A5A" fill-opacity="0.8"/>
<path d="M11.8503 8.08566H1.66899C1.5947 8.08566 1.5448 8.03575 1.5448 7.96147C1.5448 7.88718 1.5947 7.83766 1.66899 7.83766H11.8515C12.7197 7.83766 13.712 7.01899 13.712 5.97709C13.712 4.93518 12.72 4.1169 11.8515 4.1169C10.8343 4.1169 9.99051 4.96033 9.99051 5.97709C9.99051 6.05137 9.94137 6.1009 9.86632 6.1009C9.79318 6.1009 9.74328 6.05137 9.74328 5.97709C9.74308 5.70018 9.79747 5.42595 9.90334 5.17008C10.0092 4.91421 10.1645 4.68173 10.3603 4.48592C10.5561 4.29012 10.7886 4.13484 11.0445 4.02897C11.3003 3.92309 11.5746 3.8687 11.8515 3.8689C12.8435 3.8689 13.9593 4.76185 13.9593 5.97709C13.9593 7.19233 12.8427 8.08566 11.8503 8.08566Z" fill="#5A5A5A" fill-opacity="0.8"/>
<path d="M11.8503 8.46708H1.66899C1.60244 8.46775 1.53642 8.45512 1.47481 8.42995C1.4132 8.40477 1.35723 8.36755 1.31019 8.32047C1.26314 8.27339 1.22597 8.2174 1.20084 8.15577C1.17571 8.09414 1.16313 8.02811 1.16385 7.96156C1.16385 7.67851 1.38594 7.4568 1.66899 7.4568H11.8515C12.5216 7.4568 13.3311 6.79699 13.3311 5.97718C13.3311 5.15775 12.5216 4.49794 11.8515 4.49794C11.0496 4.49794 10.3715 5.17528 10.3715 5.97718C10.3715 6.26023 10.1494 6.48194 9.86632 6.48194C9.79989 6.48261 9.73399 6.47 9.67249 6.44486C9.61099 6.41971 9.55513 6.38255 9.50819 6.33553C9.46125 6.28852 9.42416 6.2326 9.39912 6.17107C9.37407 6.10953 9.36156 6.04361 9.36232 5.97718C9.36313 5.31727 9.62564 4.68461 10.0923 4.21798C10.5589 3.75135 11.1916 3.48884 11.8515 3.48804C13.0286 3.48804 14.3402 4.51013 14.3402 5.97718C14.3402 7.44423 13.0278 8.46708 11.8503 8.46708Z" fill="#5A5A5A" fill-opacity="0.8"/>
<path d="M7.90666 6.59733H2.16533C2.09104 6.59733 2.04114 6.54742 2.04114 6.47314C2.04114 6.39885 2.09104 6.34933 2.16533 6.34933H7.90666C8.25409 6.34933 8.50209 6.07657 8.50209 5.72914C8.50209 5.38209 8.25409 5.10933 7.90666 5.10933C7.73333 5.10933 7.58438 5.18361 7.46019 5.28266C7.44904 5.29446 7.43561 5.30385 7.4207 5.31027C7.4058 5.31669 7.38975 5.32001 7.37352 5.32001C7.35729 5.32001 7.34124 5.31669 7.32633 5.31027C7.31143 5.30385 7.298 5.29446 7.28685 5.28266C7.27506 5.27152 7.26566 5.25808 7.25924 5.24318C7.25282 5.22828 7.24951 5.21222 7.24951 5.19599C7.24951 5.17977 7.25282 5.16371 7.25924 5.14881C7.26566 5.13391 7.27506 5.12047 7.28685 5.10933C7.46019 4.93561 7.65904 4.86133 7.90666 4.86133C8.3779 4.86133 8.75009 5.23352 8.75009 5.72914C8.75009 6.22514 8.3779 6.59733 7.90666 6.59733Z" fill="#5A5A5A" fill-opacity="0.8"/>
<path d="M7.90663 6.97827H2.1653C1.88187 6.97827 1.66016 6.75617 1.66016 6.47312C1.66016 6.19008 1.88225 5.96836 2.1653 5.96836H7.90663C8.05482 5.96836 8.12111 5.84836 8.12111 5.72912C8.12111 5.56112 7.95349 5.38436 7.70816 5.57217C7.61127 5.65606 7.48637 5.70043 7.35828 5.69648C7.23018 5.69253 7.10826 5.64054 7.01673 5.55084C6.96965 5.50418 6.93232 5.44862 6.9069 5.38741C6.88148 5.32619 6.86848 5.26053 6.86866 5.19425C6.86883 5.12796 6.88218 5.06238 6.90793 5.0013C6.93368 4.94022 6.97131 4.88487 7.01863 4.83846C7.25901 4.59769 7.55006 4.47998 7.90701 4.47998C8.59349 4.47998 9.1314 5.02855 9.1314 5.72874C9.1314 6.42893 8.59311 6.97827 7.90663 6.97827Z" fill="#5A5A5A" fill-opacity="0.8"/>
</svg>
