<svg width="16" height="16" viewBox="0 0 16 16" fill="none" xmlns="http://www.w3.org/2000/svg">
<path d="M14.1454 10.9987L12.2432 9.90048L13.9874 9.3555C14.2403 9.2765 14.3812 9.00745 14.3022 8.7546C14.2232 8.50175 13.9542 8.36079 13.7013 8.43981L11.1137 9.24831L8.95935 8.0045L11.0708 6.78544L13.7013 7.60735C13.7489 7.62223 13.7971 7.62931 13.8445 7.6293C14.0487 7.6293 14.2381 7.49779 14.3022 7.29255C14.3812 7.03968 14.2403 6.77065 13.9874 6.69165L12.2004 6.13327L14.1289 5.01982C14.3584 4.88735 14.437 4.594 14.3045 4.36457C14.172 4.13514 13.8787 4.05654 13.6492 4.18899L11.7471 5.28722L12.1472 3.50426C12.2052 3.24576 12.0427 2.9892 11.7842 2.93119C11.5256 2.87315 11.2691 3.03571 11.2111 3.29419L10.6175 5.93937L8.46679 7.18109V4.75279L10.4902 2.88901C10.6851 2.70953 10.6975 2.40607 10.518 2.21121C10.3386 2.01635 10.0351 2.00391 9.84025 2.18338L8.46679 3.44847V1.44891C8.46679 1.184 8.25203 0.969238 7.98712 0.969238C7.72221 0.969238 7.50744 1.184 7.50744 1.44891V3.42471L6.15978 2.18338C5.96494 2.0039 5.66145 2.01635 5.48198 2.21121C5.30251 2.40607 5.31496 2.70953 5.50982 2.88901L7.50741 4.72902V7.16625L5.392 5.94492L4.79838 3.29975C4.74037 3.04126 4.48376 2.87874 4.22532 2.93675C3.96682 2.99476 3.8043 3.25132 3.86231 3.50982L4.26243 5.29277L2.35073 4.18904C2.12127 4.05659 1.82793 4.13519 1.69549 4.36462C1.56302 4.59404 1.64164 4.8874 1.87106 5.01987L3.80912 6.13881L2.02207 6.69718C1.76922 6.77618 1.62828 7.04521 1.70728 7.29808C1.77141 7.50332 1.96072 7.63483 2.16498 7.63483C2.21236 7.63483 2.26057 7.62775 2.30818 7.61288L4.93867 6.79097L7.04062 8.00453L4.89581 9.24285L2.3082 8.43434C2.0553 8.35532 1.7863 8.49626 1.70729 8.74913C1.62829 9.002 1.76922 9.27103 2.02209 9.35004L3.76627 9.89501L1.85454 10.9987C1.62511 11.1312 1.54651 11.4246 1.67898 11.654C1.76783 11.8079 1.92905 11.8939 2.09482 11.8939C2.17619 11.8939 2.25868 11.8732 2.33421 11.8296L4.27229 10.7106L3.86233 12.5374C3.80432 12.7959 3.96685 13.0525 4.22533 13.1105C4.2607 13.1184 4.296 13.1222 4.33081 13.1222C4.5503 13.1222 4.74834 12.9706 4.7984 12.7475L5.40185 10.0584L7.50741 8.84278V11.3292L5.5098 13.1692C5.31494 13.3487 5.30249 13.6521 5.48197 13.847C5.57654 13.9497 5.70551 14.0017 5.83491 14.0017C5.95107 14.0017 6.06759 13.9597 6.15976 13.8748L7.50743 12.6335V14.544C7.50743 14.8089 7.72219 15.0237 7.9871 15.0237C8.25201 15.0237 8.46678 14.8089 8.46678 14.544V12.6097L9.84023 13.8748C10.0351 14.0543 10.3385 14.0418 10.518 13.847C10.6975 13.6521 10.685 13.3487 10.4902 13.1692L8.46678 11.3054V8.82789L10.6077 10.0639L11.2111 12.753C11.2612 12.9761 11.4592 13.1277 11.6787 13.1277C11.7135 13.1277 11.7488 13.1239 11.7842 13.116C12.0427 13.058 12.2052 12.8014 12.1472 12.5429L11.7372 10.7161L13.6658 11.8296C13.7413 11.8732 13.8238 11.8939 13.9052 11.8939C14.0709 11.8939 14.2322 11.8079 14.321 11.654C14.4535 11.4246 14.3749 11.1312 14.1454 10.9987Z" fill="#5A5A5A" fill-opacity="0.8"/>
</svg>
