<svg width="16" height="16" viewBox="0 0 16 16" fill="none" xmlns="http://www.w3.org/2000/svg">
<path d="M7.99996 1.16663C4.22596 1.16663 1.16663 4.22596 1.16663 7.99996C1.16663 11.774 4.22596 14.8333 7.99996 14.8333C11.774 14.8333 14.8333 11.774 14.8333 7.99996C14.8333 4.22596 11.774 1.16663 7.99996 1.16663ZM7.99996 2.16663C11.2216 2.16663 13.8333 4.77829 13.8333 7.99996C13.8333 11.2216 11.2216 13.8333 7.99996 13.8333C4.77829 13.8333 2.16663 11.2216 2.16663 7.99996C2.16663 4.77829 4.77829 2.16663 7.99996 2.16663Z" fill="#5A5A5A" fill-opacity="0.8"/>
<path d="M8.00002 4.5C8.12432 4.50001 8.24415 4.54631 8.33616 4.62987C8.42817 4.71344 8.48576 4.82828 8.49769 4.952L8.50002 5V8.33333C8.50002 8.72533 8.07269 8.95933 7.74536 8.76367L7.70936 8.74033L5.37602 7.07367C5.27112 6.99917 5.19898 6.8871 5.17459 6.76078C5.15021 6.63445 5.17546 6.50358 5.24509 6.39539C5.31473 6.2872 5.42339 6.21002 5.54847 6.1799C5.67356 6.14978 5.80544 6.16904 5.91669 6.23367L5.95736 6.25967L7.50002 7.36167V5C7.50003 4.87571 7.54633 4.75587 7.6299 4.66386C7.71346 4.57185 7.8283 4.51427 7.95202 4.50233L8.00002 4.5Z" fill="#5A5A5A" fill-opacity="0.8"/>
</svg>
